# xmcd
#
# Track frame offsets:
#	183
#	16958
#	32853
#	55363
#	70163
#	89773
#	131010
#	148973
#	175603
#	188235
#	200710
#	214518
#	228168
#	240093
#	252980
#	266085
#	279800
#
# Disc length: 3905 seconds
#
# Revision: 1
# Processed by: cddbd v1.5.2PL0 Copyright (c) Steve Scherf et al.
# Submitted via: AudioConverter v8.05 Copyright (c) D.R. Software
#
DISCID=f70f3f11
DTITLE=Albert King - The Blues Collection 26
DYEAR=1994
DGENRE=Blues
TTITLE0=Get Out Of My Life Woman
TTITLE1=Born Under A Bad Sign
TTITLE2=The Feeling
TTITLE3=We All Wanna Boogie
TTITLE4=The Very Thought Of You
TTITLE5=I Got The Blues
TTITLE6=I Get Evil
TTITLE7=Angel Of Mercy
TTITLE8=Flat Tire
TTITLE9=California
TTITLE10=Searchin' For A Woman
TTITLE11=Bad Luck Blues
TTITLE12=Wild Woman
TTITLE13=Be On Your Merry Way
TTITLE14=Murder
TTITLE15=Howlin' For My Darlin'
TTITLE16=Won't Be Hangin' Around
EXTD=
EXTT0=
EXTT1=
EXTT2=
EXTT3=
EXTT4=
EXTT5=
EXTT6=
EXTT7=
EXTT8=
EXTT9=
EXTT10=
EXTT11=
EXTT12=
EXTT13=
EXTT14=
EXTT15=
EXTT16=
PLAYORDER=
